<?xml version="1.0" standalone="no"?>
<!DOCTYPE svg PUBLIC "-//W3C//DTD SVG 20010904//EN"
 "http://www.w3.org/TR/2001/REC-SVG-20010904/DTD/svg10.dtd">
<svg version="1.0" xmlns="http://www.w3.org/2000/svg"
 width="900.000000pt" height="280.000000pt" viewBox="0 0 900.000000 280.000000"
 preserveAspectRatio="xMidYMid meet">

<g transform="translate(0.000000,280.000000) scale(0.100000,-0.100000)"
fill="#000000" stroke="none">
<path d="M1335 2605 c-22 -18 -43 -31 -47 -29 -4 3 -8 1 -8 -4 0 -9 23 -22 38
-22 4 0 20 11 36 25 16 14 23 25 16 25 -9 0 -7 5 5 13 10 8 14 17 8 20 -5 3
-27 -9 -48 -28z m10 -24 c-3 -6 -11 -8 -17 -5 -6 4 -5 9 3 15 16 10 23 4 14
-10z"/>
<path d="M1402 2628 c-16 -16 -15 -25 2 -31 9 -4 14 2 14 19 0 28 0 28 -16 12z"/>
<path d="M1427 2623 c-4 -3 -2 -12 4 -19 6 -8 9 -21 5 -29 -6 -18 19 -21 30
-3 4 7 3 8 -4 4 -7 -4 -12 -3 -12 2 0 15 28 22 33 9 2 -7 0 -20 -5 -29 -6 -14
-5 -16 7 -12 8 4 15 10 15 16 0 5 5 6 10 3 6 -3 10 -1 10 4 0 6 -6 11 -14 11
-8 0 -16 6 -18 13 -3 6 -16 12 -29 12 -13 1 -23 6 -21 13 2 13 -1 15 -11 5z"/>
<path d="M1534 2562 c4 -7 3 -12 -2 -12 -5 0 -14 -12 -21 -27 -9 -20 -9 -25
-1 -17 13 13 53 7 44 -7 -3 -5 -3 -9 0 -9 3 0 10 9 16 20 10 19 9 20 -14 14
-17 -4 -26 -2 -26 6 0 6 5 8 10 5 6 -3 10 1 10 9 0 8 -5 18 -12 22 -7 4 -8 3
-4 -4z"/>
<path d="M1240 2550 c-13 -8 -12 -13 8 -32 23 -23 23 -23 38 -3 8 11 17 19 20
17 3 -2 8 -1 11 2 3 2 -11 3 -31 0 -28 -3 -34 -1 -30 11 7 17 5 18 -16 5z"/>
<path d="M1192 2515 c-10 -8 -22 -12 -24 -9 -3 3 -8 -2 -11 -10 -4 -10 -1 -13
9 -9 7 3 14 0 14 -6 0 -12 -12 -15 -44 -11 -14 1 -17 -3 -12 -17 5 -16 5 -16
-9 1 -15 20 -20 13 -16 -26 1 -10 -3 -18 -9 -18 -7 0 -10 7 -7 15 4 8 2 17 -3
20 -6 4 -10 1 -10 -4 0 -6 -7 -11 -15 -11 -8 0 -15 -4 -15 -9 0 -5 -7 -17 -16
-26 -13 -12 -14 -19 -4 -30 7 -8 18 -15 24 -14 7 0 7 2 -1 6 -10 3 -10 7 0 18
9 9 14 10 19 1 5 -6 8 -1 8 12 0 15 -4 21 -12 16 -7 -5 -8 -3 -3 6 6 10 11 9
21 -4 11 -16 14 -15 38 10 13 15 23 31 21 34 -2 4 12 7 31 8 41 2 57 9 48 24
-4 7 -9 6 -14 -2 -5 -8 -9 -7 -13 4 -4 9 -3 16 1 17 4 0 15 2 25 4 9 2 15 -1
11 -6 -3 -5 0 -9 6 -9 6 0 8 -5 4 -12 -4 -6 -3 -8 4 -5 13 9 4 44 -13 51 -7 2
-22 -2 -33 -9z"/>
<path d="M1637 2469 c5 -17 3 -20 -7 -14 -9 6 -11 4 -6 -4 6 -9 12 -9 25 3 24
22 48 22 31 1 -11 -13 -10 -14 5 -9 12 5 16 4 12 -3 -4 -6 -3 -22 2 -35 6 -12
10 -18 10 -12 1 7 8 15 17 18 11 4 15 2 11 -7 -3 -9 2 -13 16 -11 12 1 29 3
37 4 12 1 -19 20 -40 24 -14 3 -49 34 -44 38 3 4 -4 9 -16 13 -12 4 -24 4 -27
1 -4 -3 -12 -1 -19 5 -10 8 -11 5 -7 -12z"/>
<path d="M1570 2476 c0 -2 7 -7 16 -10 8 -3 12 -2 9 4 -6 10 -25 14 -25 6z"/>
<path d="M996 2401 c-9 -10 -31 -21 -47 -25 -19 -4 -33 -13 -36 -26 -3 -11
-10 -20 -15 -20 -5 0 -6 -4 -3 -10 3 -6 -1 -7 -9 -4 -9 3 -13 11 -9 18 3 6 -3
3 -14 -7 -11 -9 -23 -14 -28 -10 -4 5 -5 2 -1 -4 4 -8 2 -13 -5 -13 -7 0 -5
-9 7 -22 11 -13 12 -17 3 -11 -12 10 -21 9 -44 -3 -16 -8 -36 -12 -44 -9 -8 3
-12 3 -9 -1 4 -4 3 -15 -3 -26 -8 -15 -13 -17 -24 -8 -10 9 -20 7 -39 -5 -14
-10 -26 -21 -26 -26 0 -14 -28 -11 -33 4 -3 7 -6 4 -6 -6 -1 -10 -5 -15 -11
-12 -5 3 -10 2 -10 -4 0 -14 60 -7 70 8 4 7 16 11 26 7 25 -8 40 -6 37 5 -2 4
3 6 11 3 15 -6 30 22 20 38 -4 6 -1 9 7 6 8 -3 13 -14 11 -24 -2 -18 -2 -18 8
-1 6 9 9 21 5 26 -3 5 4 13 16 16 12 4 24 2 28 -4 5 -8 17 -3 37 15 25 22 26
25 7 19 -23 -6 -40 9 -22 21 8 4 9 3 5 -4 -4 -7 -2 -12 3 -12 6 0 11 5 11 10
0 7 6 7 19 0 26 -13 52 -14 31 0 -13 8 -12 10 3 10 9 0 17 5 17 11 0 6 6 9 14
6 8 -3 22 3 32 14 15 17 7 29 -10 12 -13 -13 -33 -11 -33 3 0 8 7 14 16 13 29
-3 41 1 41 12 0 7 8 18 18 25 9 7 12 14 6 14 -6 0 -19 -8 -28 -19z m-291 -191
c-3 -5 -11 -10 -16 -10 -6 0 -7 5 -4 10 3 6 11 10 16 10 6 0 7 -4 4 -10z"/>
<path d="M1808 2365 c-4 -20 -2 -23 8 -14 7 6 10 17 7 25 -7 20 -10 18 -15
-11z"/>
<path d="M1754 2367 c-4 -7 -4 -9 1 -5 4 4 14 3 22 -3 8 -7 13 -8 13 -1 0 15
-28 23 -36 9z"/>
<path d="M1841 2356 c-7 -9 -8 -17 -3 -20 6 -3 13 1 16 10 3 8 11 12 17 8 8
-4 9 -3 5 4 -10 16 -21 15 -35 -2z"/>
<path d="M1890 2333 c0 -13 -2 -15 -9 -5 -6 10 -10 10 -21 -3 -11 -13 -9 -15
10 -15 13 0 20 -3 17 -6 -9 -9 62 -46 73 -39 13 8 13 35 1 35 -5 0 -11 -5 -13
-12 -3 -7 -7 -5 -11 6 -4 10 -3 15 3 11 6 -3 10 -2 10 3 0 6 -7 13 -16 16 -23
9 -24 8 -18 -11 5 -15 4 -15 -4 -3 -6 8 -9 17 -6 21 2 4 0 10 -6 14 -5 3 -10
-2 -10 -12z"/>
<path d="M1980 2275 c-11 -13 -4 -63 7 -51 4 3 13 0 21 -7 13 -9 14 -9 8 1
-11 19 12 14 24 -5 11 -17 11 -17 6 0 -3 9 -1 17 4 17 6 0 10 8 10 18 0 9 -4
13 -8 7 -11 -16 -42 -14 -42 2 0 8 -4 11 -10 8 -6 -3 -7 1 -4 9 8 20 0 20 -16
1z"/>
<path d="M2077 2227 c-8 -20 5 -33 31 -33 27 0 28 4 0 27 -25 23 -25 22 -31 6z"/>
<path d="M2150 2185 c0 -8 8 -15 18 -16 14 0 14 -2 -3 -8 -11 -5 -23 -7 -27
-4 -5 2 -8 -1 -8 -7 0 -7 6 -10 13 -7 6 2 19 -2 27 -9 14 -11 16 -10 17 9 1
12 -7 30 -17 40 -17 15 -20 15 -20 2z"/>
<path d="M570 2170 c0 -5 -7 -10 -15 -10 -9 0 -12 -6 -9 -15 4 -8 10 -12 16
-9 5 3 4 -2 -2 -13 -7 -10 -22 -20 -34 -20 -21 -2 -21 -2 -2 13 11 8 15 14 9
14 -7 0 -15 -5 -19 -11 -4 -8 -9 -7 -16 2 -7 10 -8 8 -3 -8 6 -21 -7 -26 -30
-11 -6 4 -17 2 -25 -3 -13 -8 -13 -10 0 -19 8 -5 10 -10 4 -10 -5 0 -15 5 -21
11 -8 8 -15 6 -24 -8 -7 -13 -20 -18 -33 -16 -16 3 -25 -2 -33 -19 -10 -24
-10 -33 2 -82 6 -22 5 -27 -5 -21 -9 6 -10 3 -1 -13 15 -27 14 -55 -1 -46 -6
4 -8 3 -5 -3 4 -6 16 -13 27 -16 18 -5 19 -3 9 9 -7 8 -8 14 -3 13 22 -4 27 2
10 14 -16 11 -16 15 -1 50 8 20 15 40 14 43 0 3 2 8 5 12 3 3 6 1 6 -5 0 -6 9
-9 22 -5 12 3 19 1 15 -5 -3 -5 3 -17 13 -26 10 -9 20 -11 22 -6 2 6 16 1 31
-11 15 -12 34 -19 42 -16 8 3 14 0 12 -7 -1 -7 7 -12 18 -12 11 0 26 -4 33 -8
6 -5 12 -5 12 -1 0 4 6 -1 14 -12 13 -16 18 -17 35 -7 17 11 19 10 15 -1 -4
-11 0 -13 15 -9 12 3 21 10 21 16 0 6 -3 8 -6 4 -3 -3 -15 3 -27 14 -11 10
-27 19 -34 19 -7 0 -13 5 -13 10 0 5 -3 9 -7 9 -22 -4 -43 3 -57 17 -11 10
-16 11 -16 3 0 -7 -9 -2 -20 11 -11 13 -20 18 -20 12 0 -7 -5 -12 -11 -12 -5
0 -7 5 -3 11 5 8 2 9 -11 1 -15 -8 -23 -4 -42 18 -25 31 -30 45 -10 34 8 -5 7
-2 -2 10 -13 15 -12 17 12 12 19 -3 27 0 27 9 0 8 4 17 10 20 6 3 7 -1 4 -12
-5 -16 -4 -16 5 -2 6 9 22 15 40 14 16 -1 30 1 29 4 -2 22 4 30 19 24 10 -4
14 -2 10 4 -4 6 0 10 10 9 9 0 18 5 20 12 3 7 1 12 -4 11 -26 -5 -42 2 -37 16
4 8 3 15 0 15 -3 0 -6 -4 -6 -10z m-185 -130 c4 -6 1 -9 -6 -8 -7 2 -18 -8
-26 -22 l-13 -25 4 30 c2 17 5 31 5 33 3 7 31 1 36 -8z m28 -10 c-3 -11 -9
-20 -14 -20 -11 0 -11 3 -3 24 9 23 23 20 17 -4z m-48 -60 c-3 -5 -11 -10 -16
-10 -6 0 -7 5 -4 10 3 6 11 10 16 10 6 0 7 -4 4 -10z m289 -75 c3 -8 1 -15 -4
-15 -6 0 -10 7 -10 15 0 8 2 15 4 15 2 0 6 -7 10 -15z"/>
<path d="M2108 2173 c6 -2 18 -2 25 0 6 3 1 5 -13 5 -14 0 -19 -2 -12 -5z"/>
<path d="M655 2156 c-19 -8 -25 -15 -17 -20 7 -4 12 -2 12 4 0 6 4 9 8 6 9 -5
39 11 32 18 -3 2 -18 -1 -35 -8z"/>
<path d="M2204 2148 c-4 -6 -2 -14 4 -16 7 -2 10 -7 7 -12 -7 -11 17 -29 42
-33 12 -2 29 -9 38 -17 23 -19 53 -20 60 -2 3 10 0 12 -10 9 -8 -4 -17 -2 -20
3 -3 4 1 11 7 13 10 4 10 6 0 6 -7 1 -10 6 -6 13 4 6 3 8 -4 4 -6 -3 -9 -16
-7 -27 3 -13 0 -19 -8 -16 -7 2 -12 10 -12 18 0 15 -24 38 -39 39 -6 0 -2 -6
9 -13 12 -10 14 -16 7 -21 -7 -4 -12 -3 -12 3 0 6 -7 7 -17 4 -10 -4 -14 -2
-10 4 4 6 0 17 -9 24 -14 12 -14 14 3 20 16 7 16 8 1 8 -9 1 -20 -4 -24 -11z"/>
<path d="M2370 2055 c-11 -13 -10 -14 5 -9 13 5 16 4 11 -4 -4 -7 -2 -12 5
-12 7 0 4 -7 -7 -15 -17 -13 -17 -14 -1 -15 9 0 17 -4 17 -10 0 -5 8 -10 18
-10 14 0 15 -2 2 -10 -10 -6 -11 -10 -2 -10 6 0 12 -7 12 -15 0 -16 16 -21 23
-7 2 4 7 21 10 37 l6 30 -14 -30 -14 -30 2 38 c2 32 5 37 22 33 15 -4 12 1 -9
19 -34 29 -45 32 -25 8 13 -15 12 -15 -8 -4 -13 6 -23 16 -23 21 0 15 -16 12
-30 -5z"/>
<path d="M2352 1961 c-1 -13 -1 -23 1 -20 1 2 11 14 21 26 18 21 18 22 -1 20
-12 0 -20 -9 -21 -26z"/>
<path d="M2300 1965 c-19 -8 -46 -11 -60 -9 -24 4 -24 4 -2 -5 12 -6 22 -13
22 -16 0 -4 -5 -3 -10 0 -6 4 -18 1 -27 -7 -10 -8 -14 -8 -10 -1 5 7 -4 6 -23
-3 -17 -9 -28 -19 -25 -24 3 -5 0 -12 -6 -16 -7 -4 -9 -3 -5 4 9 15 -12 26
-28 13 -7 -6 -17 -7 -21 -3 -5 4 -5 1 -1 -5 5 -9 0 -13 -16 -13 -29 0 -48 -17
-48 -42 0 -10 -4 -18 -10 -18 -5 0 -7 7 -4 15 7 17 -11 21 -21 5 -4 -6 -11 -7
-17 -4 -7 5 -8 2 -3 -6 6 -10 3 -12 -13 -8 -12 4 -22 2 -22 -4 0 -5 -4 -6 -10
-3 -5 3 -10 0 -10 -7 0 -10 -2 -10 -9 0 -6 10 -10 7 -13 -12 -3 -15 0 -31 9
-37 10 -9 12 -9 8 3 -4 10 2 14 22 14 18 -1 31 6 38 19 10 21 27 26 41 13 4
-5 11 -8 16 -8 5 0 7 3 5 8 -2 4 8 18 21 32 14 14 22 19 18 13 -5 -8 -1 -13 9
-13 11 0 15 5 11 16 -4 12 -1 14 14 9 11 -4 20 -2 20 4 0 6 3 10 8 10 20 -3
32 2 32 16 0 10 10 15 31 15 19 0 28 -4 24 -11 -4 -6 2 -5 14 3 12 7 21 16 21
19 0 4 9 5 20 2 22 -6 28 12 8 21 -7 3 -1 3 15 1 21 -3 27 0 27 16 0 10 -1 18
-2 18 -2 -1 -19 -7 -38 -14z m-155 -75 c-3 -5 -11 -10 -16 -10 -6 0 -7 5 -4
10 3 6 11 10 16 10 6 0 7 -4 4 -10z"/>
<path d="M3370 1471 l0 -461 165 0 c158 0 265 12 265 30 0 5 10 12 21 15 27 9
75 57 84 84 3 12 10 21 14 21 11 0 31 80 31 125 0 40 -19 124 -32 140 -4 5
-21 26 -38 45 -22 24 -29 41 -25 55 4 11 9 30 12 43 3 12 9 22 14 22 5 0 9 29
9 65 0 37 -4 65 -10 65 -5 0 -10 9 -10 20 0 35 -52 120 -72 120 -5 0 -17 8
-27 18 -54 48 -49 47 -228 50 l-173 4 0 -461z m325 264 c36 -41 33 -91 -5
-129 -25 -25 -41 -30 -90 -34 l-60 -4 0 102 0 102 65 -4 c57 -3 69 -8 90 -33z
m37 -367 c73 -35 53 -188 -24 -188 -10 0 -18 -4 -18 -10 0 -6 -32 -10 -75 -10
l-75 0 0 110 0 110 83 0 c46 0 95 -6 109 -12z m-294 -259 c-24 -14 -23 -50 2
-56 25 -7 26 -23 1 -23 -30 0 -46 72 -18 83 22 9 32 7 15 -4z"/>
<path d="M4533 1924 c-10 -4 -13 -105 -13 -454 0 -399 2 -449 16 -454 9 -3 80
-6 158 -6 140 0 256 14 256 31 0 5 7 9 16 9 20 0 83 30 106 50 24 21 80 77 99
99 9 10 24 42 35 72 10 30 23 57 29 61 15 11 13 280 -2 285 -6 2 -19 26 -28
54 -9 27 -21 49 -26 49 -5 0 -12 8 -16 18 -7 20 -99 112 -111 112 -5 0 -19 9
-32 20 -13 11 -35 23 -49 27 -14 3 -29 11 -33 17 -8 11 -381 21 -405 10z m317
-184 c0 -5 9 -10 21 -10 27 0 91 -30 105 -50 7 -8 21 -26 33 -39 11 -13 23
-33 27 -45 4 -11 12 -24 18 -28 14 -9 15 -186 1 -196 -6 -4 -16 -19 -22 -34
-7 -16 -17 -28 -23 -28 -5 0 -10 -5 -10 -12 0 -15 -60 -68 -77 -68 -7 0 -13
-4 -13 -9 0 -10 -108 -31 -158 -31 l-32 0 0 280 0 280 65 0 c37 0 65 -4 65
-10z m-197 -634 c21 -16 23 -56 2 -56 -8 0 -15 -4 -15 -10 0 -16 -37 -11 -44
6 -22 56 13 93 57 60z"/>
<path d="M4604 1095 c-8 -21 3 -45 20 -45 20 0 26 12 19 38 -6 25 -31 29 -39
7z"/>
<path d="M5850 1470 l0 -460 90 0 90 0 0 282 0 282 34 -37 c18 -20 38 -37 43
-37 5 0 16 -8 25 -17 9 -10 32 -33 52 -52 20 -19 36 -37 36 -41 0 -4 13 -13
29 -20 16 -6 32 -19 35 -27 5 -12 15 -7 47 26 22 22 44 41 49 41 4 0 37 29 72
65 36 36 70 65 76 65 6 0 16 8 21 18 7 12 10 -69 11 -265 l0 -283 90 0 90 0 0
460 0 460 -34 0 c-26 0 -44 -10 -84 -47 -28 -27 -80 -75 -117 -108 -36 -33
-96 -88 -132 -122 -36 -35 -71 -63 -78 -63 -12 0 -48 32 -172 150 -34 33 -65
60 -69 60 -4 0 -35 29 -70 65 -54 56 -69 65 -99 65 l-35 0 0 -460z m96 -366
c-3 -9 -6 -29 -6 -46 0 -26 -2 -28 -15 -14 -18 18 -19 42 -2 61 16 19 31 19
23 -1z"/>
<path d="M7330 1471 l0 -461 24 0 c23 0 25 4 28 53 3 48 5 52 28 53 34 2 60
-13 60 -34 0 -18 -33 -52 -50 -52 -6 0 -10 -4 -10 -10 0 -5 25 -10 55 -10 l55
0 0 185 0 185 90 0 c50 0 90 4 90 9 0 5 15 12 34 15 19 4 49 20 67 36 19 16
37 30 40 30 4 0 12 14 19 30 7 17 16 30 20 30 4 0 13 28 19 61 14 67 7 152
-14 172 -7 7 -16 24 -20 37 -9 29 -50 69 -91 90 -16 8 -32 19 -36 25 -4 6 -89
11 -208 13 l-200 4 0 -461z m330 269 c0 -5 6 -10 13 -10 24 0 50 -42 50 -81 0
-60 -30 -78 -125 -79 l-78 0 0 90 0 90 70 0 c40 0 70 -4 70 -10z"/>
<path d="M2430 1910 c0 -8 -2 -41 -4 -72 -1 -32 -5 -60 -9 -64 -11 -12 12 -44
28 -38 8 4 15 11 15 16 0 6 -6 8 -14 5 -10 -4 -12 0 -8 15 4 15 7 17 13 6 13
-20 12 8 -2 33 -8 16 -7 26 6 46 10 14 12 22 6 19 -6 -4 -11 -3 -11 3 0 5 6
12 13 14 7 4 6 6 -5 6 -9 1 -19 7 -21 14 -4 8 -6 7 -7 -3z"/>
<path d="M2458 1913 c7 -3 16 -2 19 1 4 3 -2 6 -13 5 -11 0 -14 -3 -6 -6z"/>
<path d="M2198 1893 c7 -3 16 -2 19 1 4 3 -2 6 -13 5 -11 0 -14 -3 -6 -6z"/>
<path d="M723 1875 c4 -8 3 -14 -1 -14 -28 5 -32 -4 -8 -16 27 -14 66 -12 66
3 0 4 -14 15 -31 25 -26 14 -30 15 -26 2z"/>
<path d="M350 1835 c14 -17 0 -21 -16 -5 -7 7 -11 6 -11 -5 0 -8 4 -15 9 -15
5 0 7 -4 4 -9 -4 -5 5 -4 18 2 25 12 25 32 -1 41 -13 5 -14 4 -3 -9z"/>
<path d="M811 1842 c-1 -7 -5 -10 -11 -7 -5 3 -10 2 -10 -4 0 -6 -7 -8 -15 -5
-8 4 -15 1 -15 -5 0 -6 3 -10 8 -10 4 1 10 0 15 -1 19 -6 33 -5 39 5 5 6 8 2
8 -8 0 -10 4 -16 9 -13 5 3 11 0 14 -8 3 -7 17 -16 31 -18 23 -5 25 -3 14 11
-23 29 -62 60 -69 55 -4 -2 -10 2 -12 8 -4 10 -6 10 -6 0z"/>
<path d="M350 1780 c0 -21 7 -25 27 -12 13 8 5 26 -14 30 -7 1 -13 -7 -13 -18z"/>
<path d="M900 1790 c0 -5 5 -10 10 -10 6 0 10 -7 10 -15 0 -17 9 -19 28 -6 11
6 10 11 -3 25 -18 18 -45 22 -45 6z"/>
<path d="M1862 1783 c-7 -10 -10 -12 -7 -5 3 6 1 12 -4 12 -6 0 -11 -5 -11
-11 0 -5 -4 -8 -9 -5 -4 3 -19 -3 -31 -14 -13 -11 -29 -20 -36 -20 -7 0 -11
-6 -8 -14 3 -8 1 -17 -5 -21 -6 -3 -11 1 -11 9 0 9 -5 16 -11 16 -5 0 -7 -4
-4 -10 3 -5 0 -7 -9 -4 -22 8 -40 -30 -21 -46 12 -10 13 -8 10 9 -2 12 0 21 6
21 5 0 9 -4 9 -9 0 -18 35 -4 47 20 7 13 13 18 13 12 0 -7 5 -13 11 -13 6 0 9
6 6 14 -4 10 1 13 18 11 14 -1 22 1 20 6 -3 4 -1 10 5 14 5 3 10 0 10 -7 0
-10 2 -10 9 0 4 8 12 14 17 14 5 0 8 4 7 9 -2 5 2 9 7 9 6 0 10 5 10 10 0 16
-24 11 -38 -7z"/>
<path d="M991 1751 c-8 -5 -20 -7 -27 -4 -6 2 -15 0 -19 -6 -4 -7 5 -11 24
-11 16 0 31 -5 33 -11 2 -6 16 -12 31 -12 15 -1 29 -9 32 -17 3 -9 18 -15 39
-16 19 -1 42 -9 52 -18 9 -9 19 -14 22 -11 4 3 0 10 -8 15 -11 7 -11 10 -2 10
7 0 15 -7 18 -15 4 -8 12 -15 20 -15 7 0 20 -10 28 -21 9 -14 26 -22 45 -23
18 -1 31 -6 31 -13 0 -7 5 -13 11 -13 5 0 7 6 3 13 -6 8 -3 8 9 -1 9 -8 21
-11 28 -7 7 5 7 0 -2 -16 -10 -20 -10 -22 2 -13 8 6 37 10 66 9 29 -1 50 3 46
7 -3 5 -11 7 -17 5 -7 -3 -13 1 -13 9 0 8 3 12 5 9 3 -3 13 2 23 11 16 15 17
14 13 -8 -2 -12 -2 -17 2 -10 3 6 10 10 15 6 5 -3 9 0 9 6 0 6 5 8 10 5 6 -3
10 -1 10 5 0 6 8 10 18 9 23 -3 73 11 68 20 -3 4 4 8 15 9 10 1 28 3 39 4 14
2 19 7 14 18 -3 8 -7 20 -8 27 -1 7 -5 15 -9 18 -4 3 -5 2 -3 -1 5 -7 -31 -44
-41 -43 -5 1 -7 6 -5 13 2 6 -8 -2 -22 -19 -14 -16 -25 -25 -26 -20 0 6 5 16
12 23 6 6 9 14 6 17 -3 4 -12 -8 -19 -24 -8 -18 -21 -31 -32 -31 -11 0 -16 5
-12 13 4 6 1 5 -7 -3 -7 -9 -23 -15 -35 -14 -12 1 -20 -3 -17 -7 3 -5 -4 -9
-15 -9 -12 0 -21 -4 -21 -10 0 -5 -7 -10 -15 -10 -8 0 -15 5 -15 11 0 5 -5 7
-11 3 -6 -3 -15 0 -20 7 -8 12 -11 12 -19 -1 -6 -9 -10 -10 -10 -3 0 19 -69
56 -95 50 -17 -3 -25 0 -25 9 0 8 -7 14 -15 14 -9 0 -47 15 -85 34 -54 27 -70
31 -74 20 -5 -14 -36 -9 -36 7 0 4 7 6 15 3 8 -4 15 -2 15 4 0 5 -7 13 -16 16
-19 7 -16 8 -33 -3z m674 -80 c3 -5 2 -12 -3 -15 -5 -3 -9 1 -9 9 0 17 3 19
12 6z m-411 -47 c3 -8 2 -12 -4 -9 -6 3 -10 10 -10 16 0 14 7 11 14 -7z"/>
<path d="M353 1743 c4 -3 3 -11 -3 -17 -6 -8 -3 -12 9 -12 12 0 17 6 13 18 -2
10 -9 18 -15 18 -6 0 -7 -3 -4 -7z"/>
<path d="M2434 1722 c-6 -4 -11 -21 -10 -38 1 -25 5 -30 19 -26 15 4 16 7 5
13 -10 7 -10 9 0 9 6 0 12 5 12 11 0 5 -4 8 -8 5 -5 -3 -9 1 -9 9 0 11 5 12
21 3 19 -10 20 -10 7 5 -15 19 -21 20 -37 9z"/>
<path d="M353 1673 c-11 -28 -7 -78 6 -75 16 3 14 -23 -4 -38 -8 -7 -12 -16
-9 -21 3 -5 -1 -9 -8 -9 -8 -1 -5 -7 7 -16 17 -13 18 -17 5 -27 -15 -12 -27
-42 -13 -34 5 3 14 -1 21 -9 8 -9 9 -14 2 -14 -7 0 -7 -7 1 -22 11 -21 11 -22
-4 -9 -15 12 -17 11 -17 -13 0 -14 5 -26 11 -26 8 0 8 -4 0 -14 -9 -10 -9 -16
-1 -21 6 -4 14 -4 17 -1 9 9 12 136 3 131 -4 -3 -11 2 -14 11 -4 12 -1 14 13
9 11 -3 23 0 27 6 4 8 3 9 -4 5 -10 -6 -18 16 -10 27 1 1 -4 12 -11 25 -10 18
-9 23 4 28 8 3 12 11 8 17 -13 22 -11 78 4 84 12 5 12 7 1 14 -20 13 -28 11
-35 -8z"/>
<path d="M2434 1624 c4 -12 2 -15 -9 -10 -8 3 -15 1 -15 -4 0 -6 8 -10 17 -10
13 0 14 -3 5 -12 -18 -18 -14 -28 11 -24 25 3 37 36 14 36 -10 0 -13 7 -10 20
3 12 0 20 -7 20 -7 0 -10 -7 -6 -16z"/>
<path d="M2420 1538 c-16 -7 -20 -12 -12 -15 8 -3 21 2 30 11 19 18 17 19 -18
4z"/>
<path d="M2422 1480 c0 -17 4 -28 9 -24 5 3 7 10 4 15 -3 5 1 6 9 3 10 -4 14
0 13 15 -1 22 -17 30 -17 9 0 -10 -2 -10 -9 0 -5 9 -8 3 -9 -18z"/>
<path d="M2434 1445 c-4 -8 -11 -12 -18 -8 -7 4 -7 2 1 -7 9 -10 15 -10 26 -2
8 7 17 9 21 5 4 -4 4 0 0 10 -8 21 -23 22 -30 2z"/>
<path d="M2434 1414 c-6 -3 -9 -16 -6 -29 2 -15 0 -25 -7 -25 -7 0 -9 -5 -6
-10 4 -6 10 -8 14 -6 4 3 8 -1 8 -9 0 -8 -3 -15 -7 -15 -11 0 -6 -60 5 -61 6
0 1 -4 -10 -9 -18 -8 -18 -9 -2 -9 11 -1 15 -6 11 -12 -4 -7 -1 -10 6 -7 17 5
21 117 6 137 -8 10 -8 13 0 8 7 -4 11 5 11 23 0 30 -3 32 -23 24z"/>
<path d="M1090 1370 c-7 -4 -29 -6 -49 -4 -43 4 -76 -11 -49 -21 10 -4 21 -4
27 -1 5 3 11 0 14 -6 3 -10 9 -10 25 -1 13 8 23 9 27 3 10 -17 32 -11 38 9 5
22 -13 33 -33 21z m20 -20 c0 -5 -5 -10 -11 -10 -5 0 -7 5 -4 10 3 6 8 10 11
10 2 0 4 -4 4 -10z"/>
<path d="M960 1363 c0 -9 -20 -18 -45 -22 -3 0 -18 -7 -34 -15 -16 -9 -31 -12
-35 -9 -3 4 -6 1 -6 -5 0 -7 -6 -12 -14 -12 -21 0 -76 -49 -76 -68 0 -14 -2
-14 -9 -3 -7 10 -22 0 -65 -43 -59 -60 -66 -73 -40 -83 10 -4 30 10 60 41 24
26 44 44 44 40 0 -4 10 6 22 22 30 39 51 54 65 49 14 -5 46 23 39 34 -3 4 9 5
26 3 19 -3 29 -1 25 6 -6 9 22 22 52 22 11 0 11 -3 1 -15 -7 -8 -16 -12 -21
-9 -5 3 -9 2 -8 -3 1 -4 -1 -15 -5 -25 -9 -21 -2 -180 9 -198 6 -9 4 -11 -5
-5 -8 5 -11 4 -7 -2 3 -5 7 -26 9 -46 2 -32 4 -35 22 -25 18 10 19 9 8 -4 -10
-13 -10 -17 3 -22 8 -3 15 0 15 6 0 7 5 7 15 -2 19 -16 49 -5 65 25 7 14 17
25 22 25 4 0 8 6 8 14 0 20 -32 24 -52 6 -18 -15 -25 -36 -9 -26 5 3 12 -1 15
-10 5 -12 0 -14 -26 -10 -36 5 -47 19 -43 52 1 13 -2 21 -6 18 -5 -3 -9 7 -9
21 0 18 4 24 13 19 6 -4 1 3 -12 16 -21 21 -22 24 -7 35 14 11 14 13 -6 22
-15 6 -18 12 -10 17 7 4 12 2 12 -3 0 -6 5 -11 10 -11 6 0 4 15 -5 36 -14 34
-14 36 2 23 12 -10 15 -11 9 -1 -16 27 21 48 52 29 7 -5 12 -4 12 2 0 6 5 11
11 11 5 0 7 -4 4 -10 -3 -5 -3 -10 2 -11 4 0 16 -2 25 -4 10 -2 17 0 17 3 -3
19 2 25 10 14 6 -11 9 -9 13 5 3 12 0 20 -7 20 -34 0 -127 37 -140 56 -8 12
-15 16 -15 10z m110 -69 c0 -2 -9 -4 -21 -4 -11 0 -18 4 -14 10 5 8 35 3 35
-6z m-410 -169 c0 -8 -4 -15 -10 -15 -5 0 -7 7 -4 15 4 8 8 15 10 15 2 0 4 -7
4 -15z"/>
<path d="M1135 1360 c-8 -13 -9 -12 28 -28 16 -7 33 -10 38 -6 6 3 21 -2 35
-11 14 -9 32 -14 39 -11 7 2 15 -4 18 -16 4 -14 11 -19 23 -14 12 5 15 2 10
-9 -3 -9 -2 -13 4 -10 6 3 10 1 10 -4 0 -6 3 -10 8 -10 20 3 31 -2 26 -15 -7
-19 16 -32 27 -15 6 11 11 11 21 1 9 -9 9 -12 0 -12 -17 0 -15 -36 3 -53 8 -8
12 -17 9 -20 -3 -3 1 -18 9 -34 21 -43 22 -131 1 -154 -14 -15 -20 -17 -27 -7
-7 10 -8 10 -5 -1 2 -8 11 -16 19 -17 7 -2 24 -5 35 -8 19 -4 21 0 19 27 -2
18 2 35 8 39 8 5 7 14 -2 34 -10 22 -10 29 1 35 10 6 10 9 1 9 -7 0 -10 7 -6
17 4 10 2 14 -4 10 -6 -4 -9 3 -7 18 1 14 -3 25 -9 25 -7 0 -5 5 3 10 13 8 12
10 -2 10 -10 0 -17 3 -16 8 6 22 -16 71 -37 82 -13 7 -22 17 -19 21 3 5 -2 6
-10 3 -8 -3 -23 -1 -33 5 -11 6 -13 11 -5 11 29 0 -31 41 -108 74 -53 22 -97
29 -105 16z"/>
<path d="M368 1293 c-12 -3 -16 -14 -14 -46 2 -23 -2 -45 -7 -49 -7 -4 -7 -11
2 -21 7 -10 8 -17 2 -21 -12 -8 -12 -86 0 -86 5 0 9 -5 9 -11 0 -6 -6 -7 -12
-2 -7 4 -5 -6 6 -21 10 -16 12 -25 5 -21 -9 6 -11 2 -7 -13 4 -12 2 -22 -3
-22 -6 0 -5 -10 2 -22 10 -18 9 -20 -4 -15 -14 5 -15 2 -6 -19 5 -14 7 -29 4
-34 -2 -4 6 -19 20 -34 24 -26 26 -26 52 -11 21 12 23 15 8 13 -15 -2 -21 4
-23 25 -2 15 -7 27 -12 27 -5 0 -7 -11 -4 -25 3 -18 1 -23 -9 -19 -12 4 -14
19 -8 57 0 5 5 6 10 2 5 -3 13 -1 16 5 4 6 1 9 -7 8 -13 -3 -19 29 -8 47 5 9
5 33 0 45 -1 3 -4 25 -6 49 -3 25 -9 50 -15 58 -8 8 -8 13 -1 13 5 0 12 19 14
43 3 23 7 49 10 57 2 8 3 12 1 8 -3 -5 -9 -8 -14 -8 -13 0 -6 23 11 37 16 13
15 13 -12 6z"/>
<path d="M2438 1203 c7 -3 16 -2 19 1 4 3 -2 6 -13 5 -11 0 -14 -3 -6 -6z"/>
<path d="M1197 1175 c-15 -11 -16 -17 -7 -34 13 -26 70 -30 70 -5 0 8 -4 13
-9 9 -5 -3 -11 5 -13 17 -4 27 -18 31 -41 13z"/>
<path d="M2425 1182 c-3 -3 0 -11 5 -17 7 -9 7 -27 1 -54 -5 -24 -5 -41 0 -41
13 0 11 -34 -3 -49 -10 -11 -10 -13 0 -7 15 9 16 -16 2 -30 -7 -7 -6 -11 5
-11 9 0 15 10 16 26 0 14 2 41 3 59 1 18 -1 35 -6 38 -5 3 -6 10 -3 15 3 5 7
24 9 42 3 24 -1 34 -10 34 -8 0 -16 -3 -19 -5z"/>
<path d="M602 1097 c-7 -8 -9 -17 -5 -20 3 -4 1 -7 -6 -7 -7 0 -9 -4 -6 -10 3
-5 1 -10 -4 -10 -6 0 -11 -5 -11 -11 0 -6 7 -8 16 -5 10 4 14 1 11 -6 -2 -7
-12 -12 -21 -12 -16 2 -20 -7 -17 -34 1 -7 -4 -11 -10 -10 -12 3 -31 -60 -23
-74 3 -5 0 -8 -6 -8 -6 0 -10 -6 -8 -12 1 -7 -1 -25 -5 -40 -8 -31 -37 -37
-57 -13 -14 17 -20 18 -39 6 -12 -8 -12 -12 2 -25 15 -15 17 -15 26 1 6 10 11
13 11 6 0 -6 8 -14 18 -16 13 -4 11 -5 -5 -6 -13 0 -23 -5 -23 -9 0 -12 53 -7
58 6 2 7 8 12 13 12 4 0 4 -12 -2 -27 l-10 -28 25 24 c28 26 34 37 14 25 -10
-6 -10 -4 0 8 11 14 10 18 -5 28 -16 10 -16 11 0 6 13 -4 17 0 17 18 0 42 12
86 22 80 6 -4 8 2 3 15 -4 13 0 31 13 49 33 47 37 56 21 48 -8 -4 -3 1 11 13
23 18 24 21 9 36 -13 14 -17 14 -27 2z"/>
<path d="M7417 1103 c-13 -13 -7 -53 8 -53 10 0 15 10 15 30 0 29 -9 38 -23
23z"/>
<path d="M1325 1021 c3 -5 -5 -13 -17 -17 -14 -4 -24 -2 -26 5 -3 8 -8 6 -16
-5 -9 -11 -18 -14 -27 -9 -17 11 -50 12 -67 1 -6 -4 -12 -4 -12 -1 0 4 -14 -3
-30 -15 -17 -12 -28 -26 -25 -31 4 -5 2 -9 -2 -9 -13 0 -13 -41 0 -64 6 -12
12 -23 12 -26 2 -14 24 -43 25 -32 0 7 6 10 13 7 6 -4 4 0 -6 8 -10 9 -18 18
-18 21 1 3 1 7 0 9 -6 23 -6 58 1 62 5 3 7 12 4 19 -3 7 2 16 11 20 10 3 13
11 9 18 -5 9 -3 9 9 -1 9 -7 17 -10 17 -6 0 4 6 2 13 -4 8 -6 17 -8 20 -4 4 3
9 -1 13 -10 3 -9 12 -13 20 -10 9 3 13 12 9 20 -3 11 -1 13 10 10 8 -4 17 -2
20 3 4 6 12 10 18 10 8 0 8 -3 2 -8 -5 -4 -11 -14 -13 -22 -2 -8 0 -12 4 -7 4
4 16 -1 26 -10 20 -18 78 -27 78 -13 0 5 -10 12 -22 16 -29 9 -38 22 -38 57 0
15 -5 27 -11 27 -5 0 -8 -4 -4 -9z"/>
<path d="M1203 946 c16 -13 16 -15 -10 -31 -25 -16 -26 -17 -14 -2 18 23 8 32
-13 12 -9 -9 -22 -13 -28 -10 -7 4 -5 0 5 -8 9 -8 17 -22 17 -31 0 -9 8 -16
18 -17 11 0 12 -2 4 -6 -10 -4 -10 -8 -1 -19 9 -11 9 -18 1 -26 -15 -15 -16
-32 -2 -23 6 3 10 1 10 -6 0 -6 8 -9 20 -6 11 3 18 2 15 -3 -9 -14 103 -2 140
15 19 10 34 20 31 22 -9 9 26 36 48 38 11 1 20 5 19 8 -2 4 -3 11 -3 15 0 4
-23 7 -50 6 -28 -1 -52 2 -55 6 -2 4 -14 6 -27 5 -13 -1 -26 3 -30 9 -5 7 -8
5 -8 -5 0 -9 -10 -19 -22 -22 -19 -5 -20 -5 -5 10 12 12 13 21 5 39 -6 13 -16
24 -21 24 -5 0 -4 -6 2 -14 15 -17 1 -50 -24 -60 -9 -3 -13 -2 -10 3 3 6 -3
15 -12 21 -15 10 -14 11 9 7 15 -2 29 1 31 7 6 14 -24 50 -43 54 -11 2 -10 -2
3 -12z m150 -93 c-5 -12 -2 -15 10 -10 9 3 19 1 23 -5 5 -7 2 -8 -6 -3 -10 6
-12 3 -8 -13 7 -24 -10 -33 -43 -25 -17 5 -20 3 -14 -8 5 -8 5 -11 0 -7 -4 4
-15 2 -23 -5 -13 -9 -14 -9 -8 1 5 8 -2 12 -23 13 -17 1 -35 3 -41 4 -5 1 -14
3 -18 4 -12 2 -9 41 3 42 5 1 26 0 46 -1 21 -1 40 4 44 10 5 8 10 8 20 0 9 -8
14 -6 19 5 3 8 10 15 15 15 6 0 7 -8 4 -17z m52 7 c3 -6 -1 -7 -9 -4 -18 7
-21 14 -7 14 6 0 13 -4 16 -10z"/>
<path d="M2438 936 c-7 -33 1 -76 14 -76 5 0 6 5 3 10 -3 6 -1 10 4 10 19 0
12 20 -6 20 -16 1 -16 2 2 15 17 14 18 17 3 31 -14 14 -16 13 -20 -10z"/>
<path d="M1585 943 c6 -13 -14 -17 -62 -13 -30 2 -29 -8 2 -20 38 -14 31 -31
-11 -26 -30 4 -33 2 -24 -9 15 -17 43 -14 67 7 10 8 26 19 36 25 16 8 16 11 1
28 -8 11 -13 14 -9 8z"/>
<path d="M2324 798 c-4 -7 -4 -10 1 -6 4 4 15 2 24 -5 14 -11 14 -10 2 6 -16
20 -18 21 -27 5z"/>
<path d="M2096 681 c-3 -5 1 -11 9 -14 9 -4 12 -1 8 9 -6 16 -10 17 -17 5z"/>
<path d="M2077 659 c7 -7 15 -10 18 -7 3 3 -2 9 -12 12 -14 6 -15 5 -6 -5z"/>
<path d="M1886 547 c3 -10 9 -15 12 -12 3 3 0 11 -7 18 -10 9 -11 8 -5 -6z"/>
<path d="M1853 526 c-9 -11 -9 -15 0 -19 7 -3 14 3 14 14 2 22 2 22 -14 5z"/>
<path d="M1540 355 c-6 -8 -22 -17 -33 -21 -12 -3 -31 -14 -41 -23 -11 -9 -16
-10 -12 -4 4 8 2 11 -6 8 -30 -10 -68 -13 -68 -4 0 5 7 9 15 9 9 0 12 6 8 16
-5 12 -9 10 -23 -11 -10 -15 -19 -23 -21 -18 -7 17 -66 -6 -72 -27 -3 -11 -1
-18 4 -14 5 3 9 1 9 -4 0 -18 29 -21 56 -8 24 13 24 15 7 25 -10 6 -13 11 -7
11 5 0 16 -6 23 -12 10 -11 15 -9 26 5 11 16 15 16 22 4 10 -19 53 -4 53 18 0
8 5 15 11 15 5 0 8 -4 4 -9 -3 -5 0 -13 6 -17 8 -4 9 -3 5 4 -4 7 -2 12 4 12
6 0 8 5 4 12 -5 8 0 9 14 6 14 -4 22 -2 22 7 0 7 5 15 12 17 8 3 9 6 1 11 -6
4 -16 0 -23 -8z"/>
<path d="M1385 250 c-3 -5 -1 -10 4 -10 6 0 11 5 11 10 0 6 -2 10 -4 10 -3 0
-8 -4 -11 -10z"/>
</g>
</svg>
